<?xml version="1.0" standalone="no"?>
<!DOCTYPE svg PUBLIC "-//W3C//DTD SVG 20010904//EN"
 "http://www.w3.org/TR/2001/REC-SVG-20010904/DTD/svg10.dtd">
<svg version="1.0" xmlns="http://www.w3.org/2000/svg"
 width="72.000000pt" height="72.000000pt" viewBox="0 0 72.000000 72.000000"
 preserveAspectRatio="xMidYMid meet">
<metadata>
Created by potrace 1.14, written by Peter Selinger 2001-2017
</metadata>
<g transform="translate(0.000000,72.000000) scale(0.100000,-0.100000)"
fill="#000000" stroke="none">
<path d="M250 638 c-74 -28 -149 -105 -171 -175 -12 -36 -17 -93 -18 -183 -2
-117 0 -135 19 -165 34 -54 101 -69 158 -35 40 25 54 58 53 132 0 106 -68 156
-167 124 -21 -6 -22 -4 -17 41 19 210 261 309 417 171 51 -44 82 -105 89 -171
5 -45 4 -47 -16 -41 -65 21 -127 2 -153 -48 -23 -44 -20 -141 5 -177 41 -58
126 -65 176 -15 34 34 38 54 33 206 -3 109 -7 141 -25 179 -65 143 -235 212
-383 157z"/>
<path d="M292 501 c-9 -17 -25 -31 -34 -31 -22 0 -33 -19 -19 -33 19 -19 45
-17 68 5 l22 21 20 -45 c10 -25 26 -48 35 -51 19 -7 56 25 56 48 0 8 6 12 13
9 17 -6 41 21 32 36 -11 18 -64 12 -77 -10 -11 -18 -14 -16 -38 28 -31 58 -54
64 -78 23z"/>
</g>
</svg>
