<svg width="16" height="17" viewBox="0 0 16 17" fill="none" xmlns="http://www.w3.org/2000/svg">
<path d="M8.00002 15.8334C3.94993 15.8334 0.666687 12.5501 0.666687 8.50002C0.666687 4.44993 3.94993 1.16669 8.00002 1.16669C12.0501 1.16669 15.3334 4.44993 15.3334 8.50002C15.3334 12.5501 12.0501 15.8334 8.00002 15.8334ZM8.00002 14.5C11.3137 14.5 14 11.8137 14 8.50002C14 5.18631 11.3137 2.50002 8.00002 2.50002C4.68631 2.50002 2.00002 5.18631 2.00002 8.50002C2.00002 11.8137 4.68631 14.5 8.00002 14.5ZM8.00002 11.1667C6.52726 11.1667 5.33335 9.97278 5.33335 8.50002C5.33335 7.02726 6.52726 5.83335 8.00002 5.83335C9.47278 5.83335 10.6667 7.02726 10.6667 8.50002C10.6667 9.97278 9.47278 11.1667 8.00002 11.1667ZM8.00002 9.83335C8.7364 9.83335 9.33335 9.2364 9.33335 8.50002C9.33335 7.76364 8.7364 7.16669 8.00002 7.16669C7.26364 7.16669 6.66669 7.76364 6.66669 8.50002C6.66669 9.2364 7.26364 9.83335 8.00002 9.83335ZM12.6204 6.58599C12.7614 6.9261 12.6 7.31614 12.2599 7.45717C11.9198 7.5982 11.5298 7.43681 11.3887 7.0967C11.2044 6.6521 10.9333 6.24789 10.5927 5.9073C9.90912 5.22367 8.98631 4.83335 8.00002 4.83335C7.63183 4.83335 7.33335 4.53488 7.33335 4.16669C7.33335 3.7985 7.63183 3.50002 8.00002 3.50002C9.34357 3.50002 10.6044 4.03329 11.5356 4.96449C11.9994 5.42831 12.3688 5.97918 12.6204 6.58599Z" fill="white"/>
</svg>
