<svg width="16" height="17" viewBox="0 0 16 17" fill="none" xmlns="http://www.w3.org/2000/svg">
<path d="M2.61414 6.76467C2.76425 6.38008 3.22426 6.22299 3.57824 6.43543C4.01205 6.69578 4.49668 6.83334 5 6.83334C6.64328 6.83334 8 5.35329 8 3.50001C8 3.05038 7.92 2.61435 7.76688 2.20998C7.55904 1.66107 8.11068 1.13085 8.65093 1.36027C11.3668 2.51354 14 6.41862 14 9.83334C14 13.5976 11.553 15.8333 8 15.8333C4.44705 15.8333 2 13.5976 2 9.83334C2 8.82768 2.21426 7.78925 2.61414 6.76467ZM3.33333 9.83334C3.33333 12.833 5.1579 14.5 8 14.5C10.8421 14.5 12.6667 12.833 12.6667 9.83334C12.6667 7.47735 11.116 4.75229 9.33032 3.32454C9.33233 3.38288 9.33333 3.44137 9.33333 3.50001C9.33333 6.06501 7.40681 8.16668 5 8.16668C4.52588 8.16668 4.0625 8.08442 3.62411 7.92659C3.43289 8.5748 3.33333 9.21639 3.33333 9.83334ZM8 13.1667C7.63181 13.1667 7.33333 12.8682 7.33333 12.5C7.33333 12.1318 7.63181 11.8333 8 11.8333C9.10457 11.8333 10 10.9379 10 9.83334C10 9.46515 10.2985 9.16668 10.6667 9.16668C11.0349 9.16668 11.3333 9.46515 11.3333 9.83334C11.3333 11.6743 9.84095 13.1667 8 13.1667Z" fill="white"/>
</svg>
