<svg width="16" height="17" viewBox="0 0 16 17" fill="none" xmlns="http://www.w3.org/2000/svg">
<path fill-rule="evenodd" clip-rule="evenodd" d="M4.38147 2.69487C4.82569 2.54347 5.29073 2.50012 5.70197 2.50012C6.67846 2.50012 7.41468 2.91701 8.00034 3.33543C8.59063 2.9138 9.32194 2.50012 10.3099 2.50012C10.7491 2.50012 11.1985 2.56152 11.6339 2.70636C14.2935 3.56788 15.1502 6.4314 14.4076 8.78358L14.4045 8.79348L14.4011 8.80329C13.9901 9.97634 13.3182 11.0477 12.4365 11.9242L12.4327 11.9279L12.4289 11.9316C11.1977 13.117 9.81514 14.1877 8.3432 15.0716L7.99569 15.2802L7.65051 15.0677C6.18178 14.1636 4.8253 13.1216 3.57916 11.9266L3.57402 11.9217L3.56899 11.9166C2.69492 11.0418 2.02298 9.97833 1.60593 8.8064L1.60244 8.7966L1.59926 8.78669C0.842357 6.42937 1.70337 3.56929 4.38147 2.69487ZM5.70197 3.83346C5.37309 3.83346 5.06605 3.86969 4.80877 3.95788L4.80382 3.95958L4.79884 3.9612C3.00674 4.54425 2.2727 6.50781 2.86563 8.36929C3.21603 9.3493 3.77819 10.2381 4.50724 10.9693C5.58358 12.0008 6.74798 12.9123 8.00375 13.7154C9.25539 12.9292 10.4367 11.9983 11.5002 10.9749C12.2331 10.2452 12.7944 9.3519 13.1392 8.37242C13.7239 6.50526 12.985 4.54433 11.2209 3.97412L11.2149 3.9722L11.2149 3.97218C10.9325 3.87795 10.6269 3.83346 10.3099 3.83346C9.58271 3.83345 9.07999 4.18344 8.40329 4.69754L7.99934 5.00442L7.59588 4.6969C6.92993 4.18933 6.41619 3.83346 5.70197 3.83346Z" fill="white"/>
</svg>
