<svg width="16" height="16" viewBox="0 0 16 16" fill="none" xmlns="http://www.w3.org/2000/svg">
<path d="M14.3525 10.6196C14.2458 10.4396 13.9458 10.1596 13.1991 10.293C12.7858 10.3663 12.3658 10.3996 11.9458 10.3796C10.3925 10.313 8.98581 9.59964 8.00581 8.49964C7.13915 7.53298 6.60583 6.27296 6.59916 4.91296C6.59916 4.15296 6.74581 3.41963 7.04581 2.7263C7.33914 2.05296 7.13248 1.69963 6.98581 1.55296C6.83248 1.39963 6.4725 1.1863 5.76583 1.47963C3.03916 2.6263 1.3525 5.35963 1.5525 8.28631C1.7525 11.0396 3.68583 13.393 6.24583 14.2796C6.85914 14.493 7.50581 14.6196 8.17248 14.6463C8.27915 14.653 8.38581 14.6596 8.49248 14.6596C10.7258 14.6596 12.8191 13.6063 14.1391 11.813C14.5858 11.193 14.4658 10.7996 14.3525 10.6196Z" fill="white"/>
</svg>
