<svg width="16" height="17" viewBox="0 0 16 17" fill="none" xmlns="http://www.w3.org/2000/svg">
<path d="M5.33331 9.52342V4.5C5.33331 3.39543 6.22874 2.5 7.33331 2.5H9.99998C10.3682 2.5 10.6666 2.79848 10.6666 3.16667V4.5C10.6666 5.60457 9.77122 6.5 8.66665 6.5H6.66665V11.8333C6.66665 13.3061 5.47274 14.5 3.99998 14.5C2.52722 14.5 1.33331 13.3061 1.33331 11.8333C1.33331 10.3606 2.52722 9.16667 3.99998 9.16667C4.4857 9.16667 4.94108 9.29653 5.33331 9.52342ZM3.99998 13.1667C4.73636 13.1667 5.33331 12.5697 5.33331 11.8333C5.33331 11.097 4.73636 10.5 3.99998 10.5C3.2636 10.5 2.66665 11.097 2.66665 11.8333C2.66665 12.5697 3.2636 13.1667 3.99998 13.1667ZM8.66665 5.16667C9.03484 5.16667 9.33331 4.86819 9.33331 4.5V3.83333H7.33331C6.96512 3.83333 6.66665 4.13181 6.66665 4.5V5.16667H8.66665ZM11.3333 7.83333C10.9651 7.83333 10.6666 7.53486 10.6666 7.16667C10.6666 6.79848 10.9651 6.5 11.3333 6.5H14C14.3682 6.5 14.6666 6.79848 14.6666 7.16667C14.6666 7.53486 14.3682 7.83333 14 7.83333H11.3333ZM8.66665 10.5C8.29846 10.5 7.99998 10.2015 7.99998 9.83333C7.99998 9.46514 8.29846 9.16667 8.66665 9.16667H14C14.3682 9.16667 14.6666 9.46514 14.6666 9.83333C14.6666 10.2015 14.3682 10.5 14 10.5H8.66665ZM8.66665 13.1667C8.29846 13.1667 7.99998 12.8682 7.99998 12.5C7.99998 12.1318 8.29846 11.8333 8.66665 11.8333H14C14.3682 11.8333 14.6666 12.1318 14.6666 12.5C14.6666 12.8682 14.3682 13.1667 14 13.1667H8.66665Z" fill="white"/>
</svg>
