<svg width="16" height="17" viewBox="0 0 16 17" fill="none" xmlns="http://www.w3.org/2000/svg">
<path d="M11.3333 15.6666H4.66665C2.23331 15.6666 0.833313 14.2666 0.833313 11.8333V8.49996C0.833313 6.06663 2.23331 4.66663 4.66665 4.66663H11.3333C13.7666 4.66663 15.1666 6.06663 15.1666 8.49996V11.8333C15.1666 14.2666 13.7666 15.6666 11.3333 15.6666ZM4.66665 5.66663C2.75998 5.66663 1.83331 6.59329 1.83331 8.49996V11.8333C1.83331 13.74 2.75998 14.6666 4.66665 14.6666H11.3333C13.24 14.6666 14.1666 13.74 14.1666 11.8333V8.49996C14.1666 6.59329 13.24 5.66663 11.3333 5.66663H4.66665Z" fill="white"/>
<path d="M12 4H4C3.72667 4 3.5 3.77333 3.5 3.5C3.5 3.22667 3.72667 3 4 3H12C12.2733 3 12.5 3.22667 12.5 3.5C12.5 3.77333 12.2733 4 12 4Z" fill="white"/>
<path d="M10 2.33337H6C5.72667 2.33337 5.5 2.10671 5.5 1.83337C5.5 1.56004 5.72667 1.33337 6 1.33337H10C10.2733 1.33337 10.5 1.56004 10.5 1.83337C10.5 2.10671 10.2733 2.33337 10 2.33337Z" fill="white"/>
<path d="M5.92633 13.7407C5.14633 13.7407 4.513 13.1074 4.513 12.3274C4.513 11.5474 5.14633 10.9141 5.92633 10.9141C6.70631 10.9141 7.33965 11.5474 7.33965 12.3274C7.33965 13.1074 6.70631 13.7407 5.92633 13.7407ZM5.92633 11.9141C5.69967 11.9141 5.513 12.1007 5.513 12.3274C5.513 12.5541 5.69967 12.7407 5.92633 12.7407C6.153 12.7407 6.33966 12.5541 6.33966 12.3274C6.33966 12.1007 6.153 11.9141 5.92633 11.9141Z" fill="white"/>
<path d="M6.83856 12.8268C6.56523 12.8268 6.33856 12.6001 6.33856 12.3268V8.65344C6.33856 8.06677 6.70522 7.59344 7.26522 7.4401L9.09189 6.94011C9.67189 6.78011 10.0386 6.93347 10.2386 7.09347C10.4386 7.24677 10.6786 7.5601 10.6786 8.15344V11.7201C10.6786 11.9934 10.4519 12.2201 10.1786 12.2201C9.90522 12.2201 9.67856 11.9934 9.67856 11.7201V8.15344C9.67856 7.96677 9.63856 7.89344 9.62522 7.88677C9.61189 7.8801 9.53189 7.85344 9.34522 7.90677L7.52522 8.40677C7.35856 8.45344 7.33189 8.56677 7.33189 8.6601V12.3334C7.33856 12.6001 7.11189 12.8268 6.83856 12.8268Z" fill="white"/>
<path d="M9.27271 13.1339C8.49271 13.1339 7.85938 12.5006 7.85938 11.7206C7.85938 10.9406 8.49271 10.3073 9.27271 10.3073C10.0527 10.3073 10.686 10.9406 10.686 11.7206C10.686 12.5006 10.0527 13.1339 9.27271 13.1339ZM9.27271 11.3073C9.04604 11.3073 8.85937 11.4939 8.85937 11.7206C8.85937 11.9473 9.04604 12.1339 9.27271 12.1339C9.49937 12.1339 9.68604 11.9473 9.68604 11.7206C9.68604 11.4939 9.49937 11.3073 9.27271 11.3073Z" fill="white"/>
<path d="M6.83898 10.2211C6.61896 10.2211 6.41894 10.0744 6.35894 9.85441C6.2856 9.58775 6.44562 9.31441 6.71232 9.24108L10.0523 8.32775C10.3256 8.25441 10.5923 8.41441 10.6656 8.68108C10.739 8.94775 10.5789 9.22108 10.3122 9.29441L6.97232 10.2077C6.92565 10.2144 6.88565 10.2211 6.83898 10.2211Z" fill="white"/>
</svg>
