<svg width="24" height="24" viewBox="0 0 24 24" fill="none" xmlns="http://www.w3.org/2000/svg">
<path d="M17 6.75C17 6.19772 17.4477 5.75 18 5.75C18.5523 5.75 19 6.19772 19 6.75V16.75C19 17.3023 18.5523 17.75 18 17.75C17.4477 17.75 17 17.3023 17 16.75V6.75ZM21 10C21 9.44772 21.4477 9 22 9C22.5523 9 23 9.44772 23 10V14C23 14.5523 22.5523 15 22 15C21.4477 15 21 14.5523 21 14V10ZM13 9.75C13 9.19772 13.4477 8.75 14 8.75C14.5523 8.75 15 9.19772 15 9.75V13.75C15 14.3023 14.5523 14.75 14 14.75C13.4477 14.75 13 14.3023 13 13.75V9.75ZM5 7C5 6.44772 5.44772 6 6 6C6.55228 6 7 6.44772 7 7V17C7 17.5523 6.55228 18 6 18C5.44772 18 5 17.5523 5 17V7ZM1 10C1 9.44772 1.44772 9 2 9C2.55228 9 3 9.44772 3 10V14C3 14.5523 2.55228 15 2 15C1.44772 15 1 14.5523 1 14V10ZM9 4C9 3.44772 9.44771 3 10 3C10.5523 3 11 3.44772 11 4V20C11 20.5523 10.5523 21 10 21C9.44771 21 9 20.5523 9 20V4Z" fill="#FE476E"/>
</svg>
