<svg width="16" height="17" viewBox="0 0 16 17" fill="none" xmlns="http://www.w3.org/2000/svg">
<path d="M11.3333 15.6666H4.66665C2.37331 15.6666 0.833313 14.1266 0.833313 11.8333V7.16665C0.833313 4.87331 2.37331 3.33331 4.66665 3.33331H11.3333C13.6266 3.33331 15.1666 4.87331 15.1666 7.16665V11.8333C15.1666 14.1266 13.6266 15.6666 11.3333 15.6666ZM4.66665 4.33331C2.94665 4.33331 1.83331 5.44665 1.83331 7.16665V11.8333C1.83331 13.5533 2.94665 14.6666 4.66665 14.6666H11.3333C13.0533 14.6666 14.1666 13.5533 14.1666 11.8333V7.16665C14.1666 5.44665 13.0533 4.33331 11.3333 4.33331H4.66665Z" fill="white"/>
<path d="M4.66669 4.33331C4.39335 4.33331 4.16669 4.10665 4.16669 3.83331V1.83331C4.16669 1.55998 4.39335 1.33331 4.66669 1.33331C4.94002 1.33331 5.16669 1.55998 5.16669 1.83331V3.83331C5.16669 4.10665 4.94002 4.33331 4.66669 4.33331Z" fill="white"/>
<path d="M5.66667 11.6666C4.47333 11.6666 3.5 10.6933 3.5 9.49998C3.5 8.30665 4.47333 7.33331 5.66667 7.33331C6.86 7.33331 7.83333 8.30665 7.83333 9.49998C7.83333 10.6933 6.86 11.6666 5.66667 11.6666ZM5.66667 8.33331C5.02667 8.33331 4.5 8.85998 4.5 9.49998C4.5 10.14 5.02667 10.6666 5.66667 10.6666C6.30667 10.6666 6.83333 10.14 6.83333 9.49998C6.83333 8.85998 6.30667 8.33331 5.66667 8.33331Z" fill="white"/>
<path d="M12.3334 8.33331H9.66669C9.39335 8.33331 9.16669 8.10665 9.16669 7.83331C9.16669 7.55998 9.39335 7.33331 9.66669 7.33331H12.3334C12.6067 7.33331 12.8334 7.55998 12.8334 7.83331C12.8334 8.10665 12.6067 8.33331 12.3334 8.33331Z" fill="white"/>
<path d="M10 11H9.66669C9.39335 11 9.16669 10.7733 9.16669 10.5C9.16669 10.2267 9.39335 10 9.66669 10H10C10.2734 10 10.5 10.2267 10.5 10.5C10.5 10.7733 10.2734 11 10 11Z" fill="white"/>
<path d="M12.3333 11H12C11.7267 11 11.5 10.7733 11.5 10.5C11.5 10.2267 11.7267 10 12 10H12.3333C12.6067 10 12.8333 10.2267 12.8333 10.5C12.8333 10.7733 12.6067 11 12.3333 11Z" fill="white"/>
</svg>
