<svg width="16" height="16" viewBox="0 0 16 16" fill="none" xmlns="http://www.w3.org/2000/svg">
<path fill-rule="evenodd" clip-rule="evenodd" d="M12.4714 5.86426C12.4714 6.70157 12.6926 7.19504 13.1796 7.76377C13.5487 8.18277 13.6666 8.72057 13.6666 9.30404C13.6666 9.88684 13.4752 10.4401 13.0915 10.8893C12.5893 11.4278 11.881 11.7716 11.1581 11.8314C10.1106 11.9206 9.06245 11.9958 8.00031 11.9958C6.93751 11.9958 5.89001 11.9509 4.84248 11.8314C4.11895 11.7716 3.41066 11.4278 2.90909 10.8893C2.52546 10.4401 2.33331 9.88684 2.33331 9.30404C2.33331 8.72057 2.45191 8.18277 2.82031 7.76377C3.32254 7.19504 3.52926 6.70157 3.52926 5.86426V5.58024C3.52926 4.45893 3.80887 3.72572 4.38465 3.00795C5.24069 1.96117 6.61288 1.33337 7.97051 1.33337H8.03011C9.41691 1.33337 10.8334 1.99139 11.675 3.08315C12.2209 3.78615 12.4714 4.48847 12.4714 5.58024V5.86426ZM6.04909 13.3739C6.04909 13.0382 6.35719 12.8844 6.6421 12.8186C6.97538 12.7482 9.00618 12.7482 9.33945 12.8186C9.62438 12.8844 9.93245 13.0382 9.93245 13.3739C9.91585 13.6935 9.72838 13.9769 9.46931 14.1568C9.13338 14.4187 8.73918 14.5845 8.32705 14.6443C8.09911 14.6738 7.87518 14.6745 7.65518 14.6443C7.24238 14.5845 6.84818 14.4187 6.5129 14.1562C6.25317 13.9769 6.06566 13.6935 6.04909 13.3739Z" fill="white"/>
</svg>
