<svg width="16" height="17" viewBox="0 0 16 17" fill="none" xmlns="http://www.w3.org/2000/svg">
<g opacity="0.5">
<path d="M11.8755 11.4327L14.9404 14.4976C15.2007 14.7579 15.2007 15.18 14.9404 15.4404C14.68 15.7007 14.2579 15.7007 13.9975 15.4404L10.9327 12.3756C9.90628 13.1966 8.60428 13.6876 7.18761 13.6876C3.8739 13.6876 1.18761 11.0013 1.18761 7.68762C1.18761 4.37391 3.8739 1.68762 7.18761 1.68762C10.5013 1.68762 13.1876 4.37391 13.1876 7.68762C13.1876 9.1043 12.6966 10.4063 11.8755 11.4327ZM7.18761 12.3543C9.76494 12.3543 11.8543 10.265 11.8543 7.68762C11.8543 5.11029 9.76494 3.02096 7.18761 3.02096C4.61028 3.02096 2.52094 5.11029 2.52094 7.68762C2.52094 10.265 4.61028 12.3543 7.18761 12.3543Z" fill="white"/>
</g>
</svg>
