<svg width="16" height="17" viewBox="0 0 16 17" fill="none" xmlns="http://www.w3.org/2000/svg">
<path d="M13 8.5V11.8333C13 12.5406 12.719 13.2189 12.219 13.719C11.7189 14.219 11.0406 14.5 10.3333 14.5H5.66667C4.95942 14.5 4.28115 14.219 3.78105 13.719C3.28095 13.2189 3 12.5406 3 11.8333V8.5" stroke="white" stroke-linecap="round" stroke-linejoin="round"/>
<path d="M5.25335 2.5C4.6938 2.50089 4.14871 2.67777 3.69525 3.0056C3.24179 3.33343 2.90295 3.7956 2.72669 4.32667L2.06002 6.23333C2.00158 6.40963 1.97231 6.59428 1.97335 6.78C1.97511 7.23563 2.15689 7.6721 2.47907 7.99428C2.80125 8.31647 3.23772 8.49824 3.69335 8.5C4.23832 8.50117 4.766 8.3088 5.18235 7.95716C5.59869 7.60553 5.87665 7.11748 5.96669 6.58L6.63335 2.5H5.25335Z" stroke="white" stroke-linecap="round" stroke-linejoin="round"/>
<path d="M10.7468 2.50009C11.3109 2.49536 11.8619 2.66963 12.3207 2.99786C12.7795 3.32609 13.1224 3.79135 13.3001 4.32676L13.9668 6.23343C14.0252 6.40972 14.0545 6.59437 14.0534 6.78009C14.0517 7.23573 13.8699 7.6722 13.5477 7.99438C13.2255 8.31656 12.7891 8.49834 12.3334 8.50009C11.7896 8.49969 11.2635 8.3066 10.8486 7.9551C10.4336 7.6036 10.1566 7.11644 10.0668 6.58009L9.40009 2.50009H10.7468Z" stroke="white" stroke-linecap="round" stroke-linejoin="round"/>
<path d="M6.66664 2.5L6.0533 6.2C6.01045 6.48221 6.02851 6.77032 6.10625 7.04496C6.184 7.31961 6.31963 7.57444 6.50403 7.79232C6.68844 8.0102 6.91735 8.18608 7.17537 8.30814C7.4334 8.4302 7.71456 8.49562 7.99997 8.5C8.28707 8.49846 8.57048 8.43513 8.83092 8.31431C9.09137 8.19349 9.32275 8.01801 9.50934 7.7998C9.69592 7.58159 9.83334 7.32576 9.91225 7.04971C9.99116 6.77366 10.0097 6.48386 9.96664 6.2L9.3533 2.5H6.66664Z" stroke="white" stroke-linecap="round" stroke-linejoin="round"/>
</svg>
