<svg width="16" height="17" viewBox="0 0 16 17" fill="none" xmlns="http://www.w3.org/2000/svg">
<path d="M10.7933 1.83337H5.20665C2.77998 1.83337 1.33331 3.28004 1.33331 5.70671V11.2934C1.33331 13.1667 2.19331 14.4534 3.70665 14.94C4.14665 15.0934 4.65331 15.1667 5.20665 15.1667H10.7933C11.3466 15.1667 11.8533 15.0934 12.2933 14.94C13.8066 14.4534 14.6666 13.1667 14.6666 11.2934V5.70671C14.6666 3.28004 13.22 1.83337 10.7933 1.83337ZM13.6666 11.2934C13.6666 12.72 13.1066 13.62 11.98 13.9934C11.3333 12.72 9.79998 11.8134 7.99998 11.8134C6.19998 11.8134 4.67331 12.7134 4.01998 13.9934H4.01331C2.89998 13.6334 2.33331 12.7267 2.33331 11.3V5.70671C2.33331 3.82671 3.32665 2.83337 5.20665 2.83337H10.7933C12.6733 2.83337 13.6666 3.82671 13.6666 5.70671V11.2934Z" fill="white"/>
<path d="M8.00124 5.83337C6.68124 5.83337 5.61456 6.90004 5.61456 8.22004C5.61456 9.54004 6.68124 10.6134 8.00124 10.6134C9.32124 10.6134 10.3879 9.54004 10.3879 8.22004C10.3879 6.90004 9.32124 5.83337 8.00124 5.83337Z" fill="white"/>
</svg>
